# xmcd
#
# Track frame offsets:
#	183
#	15943
#	30693
#	44563
#	60098
#	78338
#	93493
#	106083
#	121230
#	136713
#	154815
#	171168
#
# Disc length: 2438 seconds
#
# Revision: 1
# Processed by: cddbd v1.5.2PL0 Copyright (c) Steve Scherf et al.
# Submitted via: audiograbber 1.83.01
#
DISCID=8409840c
DTITLE=Rodeo Ranchers - After Midnight
DYEAR=1900
DGENRE=
TTITLE0=Country Music Ladies
TTITLE1=Big Girls, They Don't Cry
TTITLE2=Don't Take It For Granted
TTITLE3=Leaving Out The Part About You
TTITLE4=The Other Side
TTITLE5=I'm A Girl In A Country Band
TTITLE6='Til The Morning Comes
TTITLE7=God Only Knows
TTITLE8=No Money In His Pocket
TTITLE9=Younger Than Me
TTITLE10=Where The Condor Flies So High
TTITLE11=The Cowboy Yodel Song
EXTD=
EXTT0=
EXTT1=
EXTT2=
EXTT3=
EXTT4=
EXTT5=
EXTT6=
EXTT7=
EXTT8=
EXTT9=
EXTT10=
EXTT11=
PLAYORDER=
